<svg id="Слой_1" data-name="Слой 1" xmlns="http://www.w3.org/2000/svg" xmlns:xlink="http://www.w3.org/1999/xlink" width="1060" height="1116.23" viewBox="0 0 1060 1116.23"><defs><style>.cls-1{fill:url(#Безымянный_градиент_66);}.cls-2{fill:url(#Безымянный_градиент_66-2);}.cls-3{fill:url(#Безымянный_градиент_66-3);}.cls-4{fill:url(#Безымянный_градиент_66-4);}.cls-5{fill:url(#Безымянный_градиент_66-5);}.cls-6{fill:url(#Безымянный_градиент_66-6);}.cls-7{fill:url(#Безымянный_градиент_66-7);}.cls-8{fill:url(#Безымянный_градиент_66-8);}.cls-9{fill:url(#Безымянный_градиент_66-9);}</style><linearGradient id="Безымянный_градиент_66" x1="193.01" y1="136.06" x2="357.32" y2="227.5" gradientUnits="userSpaceOnUse"><stop offset="0" stop-color="#c3447d"/><stop offset="1" stop-color="#fbae3c"/></linearGradient><linearGradient id="Безымянный_градиент_66-2" x1="371.73" y1="42.56" x2="507.29" y2="117.99" xlink:href="#Безымянный_градиент_66"/><linearGradient id="Безымянный_градиент_66-3" x1="868.23" y1="46.13" x2="938.35" y2="85.15" xlink:href="#Безымянный_градиент_66"/><linearGradient id="Безымянный_градиент_66-4" x1="752.28" y1="159.31" x2="842.26" y2="209.38" xlink:href="#Безымянный_градиент_66"/><linearGradient id="Безымянный_градиент_66-5" x1="586.34" y1="54.82" x2="682.25" y2="108.2" xlink:href="#Безымянный_градиент_66"/><linearGradient id="Безымянный_градиент_66-6" x1="421.81" y1="645.95" x2="490.24" y2="684.03" xlink:href="#Безымянный_градиент_66"/><linearGradient id="Безымянный_градиент_66-7" x1="140.9" y1="45.25" x2="212.07" y2="84.85" xlink:href="#Безымянный_градиент_66"/><linearGradient id="Безымянный_градиент_66-8" x1="-78.56" y1="367.2" x2="969.37" y2="950.38" xlink:href="#Безымянный_градиент_66"/><linearGradient id="Безымянный_градиент_66-9" x1="200.98" y1="477.49" x2="407.63" y2="592.49" xlink:href="#Безымянный_градиент_66"/></defs><g id="Слой_2" data-name="Слой 2"><path class="cls-1" d="M294.26,251.19c6.31,7.25,15.28,11.59,24,11.59s17.68-4.34,24-11.59c12.94-14.87,12.83-38.17,0-51.67l-66.08-76a32,32,0,0,0-24.34-11.46,29.86,29.86,0,0,0-23.64,11.46c-13,14.91-12.86,38.26,0,51.8Z" transform="translate(0.22 -0.16)"/><path class="cls-2" d="M426.34,141.87c4.34,16.22,17.71,27.54,32.49,27.54a23,23,0,0,0,9-1.4c18.08-5.2,28.82-26.3,23.52-45.78L469.33,27.49c-4-14-14.94-24.49-27.76-26.84a29.55,29.55,0,0,0-5.34-.49,31.19,31.19,0,0,0-9,1.38c-18.09,6.5-28.17,26.67-23,45.62Z" transform="translate(0.22 -0.16)"/><path class="cls-3" d="M878.71,88.54a24.92,24.92,0,0,0,4.19,6,26,26,0,0,0,6.4,5.68,13.25,13.25,0,0,1,1.41,1,33.13,33.13,0,0,0,2.86,1.88,19.43,19.43,0,0,0,4.08,1.71,5,5,0,0,1,.89.31l4.1,1.09h5.09c9.79,0,18.93-4.55,24.21-11.83a27.47,27.47,0,0,0,4.58-6.75c.32-.74.63-1.31.94-1.89.51-.94,1-1.88,1.53-3.08a22.44,22.44,0,0,0,1.35-4.5,9.24,9.24,0,0,1,.33-1.32,21.88,21.88,0,0,0,1.62-9.07c0-10.57-3.74-20.21-9.73-25.9-6.83-7.85-15.66-12.17-24.87-12.17a30.72,30.72,0,0,0-6.15.63c-3.2.28-5.7,1.73-8,3.06a30.35,30.35,0,0,0-5.28,3.58,25.77,25.77,0,0,0-5.83,5.47c-6.16,8.5-9.15,16.78-9.15,25.33v5.8a22.53,22.53,0,0,0,2.34,9.09A34.13,34.13,0,0,0,878.71,88.54Z" transform="translate(0.22 -0.16)"/><path class="cls-4" d="M769.65,262.78c8.71,0,17.68-4.34,24-11.59l66.09-75.84c13-14.91,12.85-38.26,0-51.79-6.43-7.39-15-11.46-24.23-11.46a30.42,30.42,0,0,0-23.76,11.46l-66,76c-12.93,14.86-12.82,38.16,0,51.67C752.18,258.55,760.88,262.78,769.65,262.78Z" transform="translate(0.22 -0.16)"/><path class="cls-5" d="M619.37,167.79a24.34,24.34,0,0,0,9.7,1.62c14.79,0,28.15-11.32,32.55-27.8L683.73,47C688,27.35,678.09,7.79,660.16,1.37A30.87,30.87,0,0,0,651.68.16a29.36,29.36,0,0,0-5.36.49c-13.47,2.47-24.63,13.86-27.74,28.18l-22.1,93.51C592.2,142,602.12,161.6,619.37,167.79Z" transform="translate(0.22 -0.16)"/><path class="cls-6" d="M460.21,630.35c-18.23,0-33.06,16.59-33.06,37s14.83,37,33.06,37,33.06-16.58,33.06-37S478.44,630.35,460.21,630.35Z" transform="translate(0.22 -0.16)"/><path class="cls-7" d="M148.4,77.15a21.76,21.76,0,0,0,1.33,4.46,32.79,32.79,0,0,0,3.07,5.87,25.48,25.48,0,0,0,4.2,6,26.17,26.17,0,0,0,6.38,5.66,10,10,0,0,1,1.2.85,26.48,26.48,0,0,0,3.08,2.12,19.14,19.14,0,0,0,5.08,1.88l4.1,1.09h5c9.78,0,18.92-4.55,24-11.59a38.28,38.28,0,0,0,9.74-25.77c0-9.55-4.79-20.56-11.4-26.84a31.48,31.48,0,0,0-24-11.24,30.57,30.57,0,0,0-6.23.64c-3.19.28-5.68,1.73-8,3.06a35.22,35.22,0,0,0-4.63,3,19.62,19.62,0,0,0-5.19,4.51,38.43,38.43,0,0,0-9.61,26,21.24,21.24,0,0,0,1.51,9A7.18,7.18,0,0,1,148.4,77.15Z" transform="translate(0.22 -0.16)"/><path class="cls-8" d="M933.53,413.08a1.78,1.78,0,0,1-.51-1.77,511.14,511.14,0,0,0,2.53-51.63c0-20-15.14-37-33.06-37H157.08c-18.23,0-33.07,16.59-33.07,37a508.63,508.63,0,0,0,2.61,52.2,1.72,1.72,0,0,1-.45,1.15C53.78,430.4.62,504.66-.22,589.69c0,18.52,11.13,34,27.44,37.79a29.71,29.71,0,0,0,5.5.51c9.14,0,17.65-4.1,24-11.56a39.81,39.81,0,0,0,9.21-25.78c0-50.52,30.77-94.31,72.54-104.16a2.79,2.79,0,0,1,.71.67c45.06,186.93,188.19,323.65,357.16,340.65a3.09,3.09,0,0,1,.41,1.48v96.8a6.22,6.22,0,0,1-.15,1.36H372.42c-18.54,0-33.07,16.24-33.07,37v76.67a6.79,6.79,0,0,1-.14,1.37H208.43c-18.11,0-33.67,15.52-34.71,34.63a39.52,39.52,0,0,0,10.57,29.22,31,31,0,0,0,22.48,10.09H372.42c18.54,0,33.06-16.24,33.06-37v-76.68a6.32,6.32,0,0,1,.15-1.36l248.16-.22a3.1,3.1,0,0,1,.29,1.58v38.34a7.71,7.71,0,0,1-.14,1.37H490c-18.11,0-33.69,15.52-34.71,34.63a39.55,39.55,0,0,0,10.56,29.22,31,31,0,0,0,22.49,10.09H851.13c18.11,0,33.67-15.53,34.71-34.64a39.59,39.59,0,0,0-10.57-29.21,30.94,30.94,0,0,0-22.48-10.09l-132.3.22a3.12,3.12,0,0,1-.29-1.59V964.42c0-20.73-14.52-37-33.06-37l-124,.23a3.17,3.17,0,0,1-.29-1.59V828.33a1.63,1.63,0,0,1,.83-1.48C731.79,811,875.08,674.24,920.48,485.56c41.65,9.82,72.43,52.86,73.18,102.22,0,20.19,13.82,37.62,30.88,38.87.68,0,1.35.06,2,.06,18.62,0,33.22-16.26,33.22-37C1059.78,503.66,1006.57,429.35,933.53,413.08ZM529.78,754.94c-174.46,0-321.57-156.25-338.19-357.34H868C851.36,598.69,704.25,754.94,529.78,754.94Z" transform="translate(0.22 -0.16)"/><path class="cls-9" d="M379.67,579.85c-33.28-31-58.88-71.25-74-116.47-5-14.43-17.16-23.74-31-23.74a31,31,0,0,0-12.49,2.67c-16.48,7.63-24.59,28.44-18.36,47.65,20.74,57,53.25,107.45,94,146l.62.54c5.08,3.92,12,8.42,20.75,8.42,9.92,0,19-4.93,25.9-14.21C395.65,614.72,393.17,591.87,379.67,579.85Z" transform="translate(0.22 -0.16)"/></g></svg>